<svg width="94" height="94" viewBox="0 0 94 94" fill="none" xmlns="http://www.w3.org/2000/svg">
<mask id="mask0_2010_14" style="mask-type:alpha" maskUnits="userSpaceOnUse" x="0" y="0" width="94" height="94">
<rect width="94" height="94" rx="28" fill="white"/>
</mask>
<g mask="url(#mask0_2010_14)">
<rect width="94" height="94" rx="28" fill="black"/>
<path d="M43.1538 40.7419C43.1538 40.7419 36.4615 47.3779 33.1154 60.6498C23.0769 50.6959 34.7885 34.106 34.7885 34.106C34.7885 34.106 26.4231 37.424 9.69231 54.0138C6.34615 37.424 29.7692 27.47 29.7692 27.47C29.7692 27.47 16.3846 27.47 3 30.788C3 14.1982 33.1154 17.5161 33.1154 17.5161C33.1154 17.5161 26.4231 10.8802 9.69231 7.56221C29.7692 -5.70968 46.5 14.1982 46.5 14.1982C46.5 14.1982 49.8462 0.926267 79.9615 4.24424C66.5769 10.8802 59.8846 17.5161 59.8846 17.5161C59.8846 17.5161 86.6538 17.5161 90 37.424C76.6154 30.788 59.8846 27.47 59.8846 27.47C59.8846 27.47 79.9615 37.424 79.9615 57.3318C69.9231 47.3779 56.5385 37.424 56.5385 37.424C56.5385 37.424 59.8846 50.6959 59.8846 60.6498C59.8846 70.6037 56.5385 80.5576 53.1923 90.5115C53.1923 93.8295 36.4615 93.8295 36.4615 90.5115C39.8077 80.5576 46.5 73.9217 46.5 60.6498C46.5 47.3779 43.1538 40.7419 43.1538 40.7419Z" fill="white"/>
</g>
<style>
    @media (prefers-color-scheme: dark) {
        svg {
            mask rect  {
                fill: black !important;
            }
            rect {
                fill: white !important;
            }

            path {
                fill: black !important;
            }
        }
    }
</style>
</svg>
